File Name    : Twilight[2008]DvDrip x264_[rohnak]
Type         : Movie
Format       : mp4
File Size    : 195 MB
Duration     : 02:01:50
Language     : english
Source       : R5
Subtitles    : yes-English
Genre        : Drama | Fantasy | Romance
IMDB Link    : http://www.imdb.com/title/tt1099212/
IMDB Rating  : 5.8/10
IMDB Votes   : 103,488 votes

Format                           : MP4
Codec ID                         : x264
Codec ID/Hint                    : x264
Duration                         : 2h 1mn
Bit rate                         : 192 Kbps
Width                            : 656 pixels
Height                           : 264 pixels
Display aspect ratio             : 2.35:1
Frame rate                       : 8 fps
Resolution                       : 8 bits
Colorimetry                      : 4:2:0
Scan type                        : Progressive
Bits/(Pixel*Frame)               : 0.252
Stream size                      : 195 MiB

File Name    : Twilight.New.Moon.2009.x264_[rohnak]
Type         : Movie
Format       : mp4
File Size    : 195 MB
Duration     : 02:01:08
Language     : English
Source       : R5
Subtitles    : yes-English
Genre        : Drama | Fantasy | Romance
IMDB Link    : http://www.imdb.com/title/tt1259571/
IMDB Rating  : 4.6/10
IMDB Votes   : 52,286 votes 

Format                           : MP4
Codec ID                         : x264
Codec ID/Hint                    : x264
Duration                         : 2h 01mn
Bit rate                         : 192 Kbps
Width                            : 720 pixels
Height                           : 304 pixels
Display aspect ratio             : 2.35:1
Frame rate                       : 8 fps
Resolution                       : 8 bits
Colorimetry                      : 4:2:0
Scan type                        : Progressive
Bits/(Pixel*Frame)               : 0.252
Stream size                      : 195 MiB

screen shots 
http://bayimg.com/IalpMAACC 
http://bayimg.com/ialppaacc 
http://bayimg.com/JaLPBAaCC 
http://bayimg.com/JaLpeaAcc

